<?xml version="1.0" encoding="utf-8"?>
<!-- Generator: Adobe Illustrator 19.1.1, SVG Export Plug-In . SVG Version: 6.00 Build 0)  -->
<svg version="1.1" id="Layer_1" xmlns="http://www.w3.org/2000/svg" xmlns:xlink="http://www.w3.org/1999/xlink" x="0px" y="0px"
	 viewBox="0 0 314 122" style="enable-background:new 0 0 314 122;" xml:space="preserve">
<style type="text/css">
	.st0{fill:#78BE43;}
</style>
<path class="st0" d="M152,105.6c-24.1,0-43.8-19.6-43.8-43.8c0-24.2,19.6-43.8,43.8-43.8c24.2,0,43.8,19.6,43.8,43.8
	C195.8,86,176.1,105.6,152,105.6L152,105.6z M152,37.4c-13.8,0-25,11.1-25,24.9c0,13.8,11.1,24.8,25,24.8c13.8,0,25-11,25-24.8
	C176.9,48.5,165.8,37.4,152,37.4L152,37.4z M266.7,104.1V51.4c0-6.8-5.6-12.4-12.5-12.4h-30.5v65.1h-19.9V20h52.2
	c16.4,0,29.9,13.5,29.9,29.9v54.2H266.7L266.7,104.1z M80.8,104V76.5h-42V104H19V20h19.8v37.1h42V20h19.3v84H80.8L80.8,104z
	 M295.1,103.1c-2.9,0-5.3-2.4-5.3-5.3c0-2.9,2.4-5.3,5.3-5.3c2.9,0,5.3,2.4,5.3,5.3C300.4,100.8,298,103.1,295.1,103.1L295.1,103.1z
	 M295.1,93.8c-2.2,0-3.9,1.8-3.9,4.1c0,2.3,1.7,4.1,3.9,4.1c2.2,0,3.9-1.8,3.9-4.1C299,95.6,297.3,93.8,295.1,93.8L295.1,93.8z
	 M296.1,98.4l1.4,2.2h-1.5l-1.3-2.1h-0.3v2.1h-1.4V95h1.8c1.3,0,2.5,0.3,2.5,1.6C297.4,97.7,296.7,98.3,296.1,98.4L296.1,98.4z
	 M295.1,96.1h-0.7v1.2h0.7c0.3,0,0.9,0,0.9-0.6C296,96.2,295.5,96.1,295.1,96.1L295.1,96.1z"/>
</svg>
